<?xml version="1.0" encoding="UTF-8"?>
<svg id="Capa_1" xmlns="http://www.w3.org/2000/svg" version="1.1" viewBox="0 0 240.6 240.8">
  <!-- Generator: Adobe Illustrator 30.0.0, SVG Export Plug-In . SVG Version: 2.1.1 Build 123)  -->
  <defs>
    <style>
      .st0 {
        fill: #fff;
      }
    </style>
  </defs>
  <path class="st0" d="M195.5,174.4V35.5c0-8.9-4.1-17.2-11.3-22.5-7.1-5.4-16.2-7-24.7-4.6l-28.3,8.1c-4.2,1.2-8,3.3-11.1,6.1-3.1-2.8-6.9-4.9-11.1-6.1l-28.3-8.1c-8.6-2.4-17.7-.8-24.7,4.6-7.1,5.4-11.3,13.6-11.3,22.5v138.8l75.2,21.5,75.2-21.5h.2ZM129.6,43.6c0-4.1,2.8-7.9,6.9-9l28.3-8.1c.8-.3,1.8-.4,2.6-.4,2,0,3.9.7,5.6,1.9,2.3,1.8,3.8,4.5,3.8,7.5v124.6l-47.1,13.4V43.6h0ZM110.8,173.6l-47.1-13.4V35.5c0-3,1.4-5.7,3.8-7.5s5.4-2.3,8.3-1.5l28.3,8.1c4,1.1,6.9,4.9,6.9,9v130h0ZM233.1,35.5v165.7l-112.9,32.2L7.3,201.2V44.9c0-8.9,4.1-17.2,11.3-22.5,2.3-1.8,4.9-3,7.6-3.9v168.6l94.1,26.9,94.1-26.9V9.1c2.6.9,5.3,2.2,7.6,3.9,7.1,5.4,11.3,13.6,11.3,22.5h-.2Z"/>
</svg>